<?xml version="1.0" standalone="no"?>
<!DOCTYPE svg PUBLIC "-//W3C//DTD SVG 20010904//EN"
 "http://www.w3.org/TR/2001/REC-SVG-20010904/DTD/svg10.dtd">
<svg version="1.0" xmlns="http://www.w3.org/2000/svg"
 width="512.000000pt" height="512.000000pt" viewBox="0 0 512.000000 512.000000"
 preserveAspectRatio="xMidYMid meet">
<metadata>
Created by potrace 1.11, written by Peter Selinger 2001-2013
</metadata>
<g transform="translate(0.000000,512.000000) scale(0.100000,-0.100000)"
fill="#000000" stroke="none">
<path d="M260 4741 c-162 -51 -262 -190 -256 -354 3 -71 19 -126 52 -179 31
-48 91 -106 134 -128 45 -23 -13 0 915 -355 226 -86 437 -167 470 -180 33 -13
209 -80 390 -150 182 -69 377 -144 435 -167 287 -110 371 -142 445 -170 44
-16 89 -34 100 -38 11 -5 56 -22 100 -39 44 -17 236 -91 427 -164 l348 -133
-173 -79 c-94 -43 -194 -88 -222 -101 -27 -13 -192 -87 -365 -165 -173 -77
-335 -150 -360 -162 -76 -34 -162 -73 -220 -100 -45 -20 -1209 -546 -1345
-607 -22 -10 -71 -33 -110 -50 -197 -89 -586 -265 -625 -282 -135 -60 -249
-121 -281 -150 -156 -143 -155 -391 2 -532 87 -79 228 -112 338 -79 43 13 198
81 399 174 46 22 85 39 87 39 2 0 37 15 77 34 106 49 176 81 238 109 30 13 75
33 100 45 25 11 212 96 415 187 204 92 557 252 785 355 229 104 483 218 565
255 174 78 228 102 327 148 40 19 89 41 108 49 34 16 98 44 203 92 28 13 144
65 257 116 113 51 238 107 278 126 40 19 74 34 76 34 4 0 86 37 235 106 40 19
101 46 134 60 212 90 295 151 342 255 70 157 28 327 -110 436 -34 28 -420 186
-690 283 -69 25 -705 269 -730 280 -11 5 -58 23 -105 40 -47 17 -94 35 -105
40 -11 5 -303 117 -650 250 -346 132 -675 258 -730 279 -55 22 -314 121 -575
221 -261 99 -484 185 -495 190 -39 17 -371 143 -415 157 -70 22 -157 24 -220
4z"/>
</g>
</svg>
